<?xml version="1.0" standalone="no"?>
<!DOCTYPE svg PUBLIC "-//W3C//DTD SVG 20010904//EN"
 "http://www.w3.org/TR/2001/REC-SVG-20010904/DTD/svg10.dtd">
<svg version="1.0" xmlns="http://www.w3.org/2000/svg"
 width="700.000000pt" height="700.000000pt" viewBox="0 0 700.000000 700.000000"
 preserveAspectRatio="xMidYMid meet">
<metadata>
Created by potrace 1.14, written by Peter Selinger 2001-2017
</metadata>
<g transform="translate(0.000000,700.000000) scale(0.100000,-0.100000)"
fill="#000000" stroke="none">
<path d="M1830 6650 c-15 -9 -1452 -1443 -1536 -1533 -35 -37 -44 -52 -39 -70
4 -12 370 -385 813 -829 l807 -808 -769 -769 c-645 -645 -768 -773 -768 -796
-1 -23 125 -153 783 -811 514 -514 793 -786 809 -789 22 -4 120 90 797 768
l773 772 768 -767 c422 -422 774 -767 782 -769 8 -1 22 -1 30 0 14 1 1559
1537 1580 1571 5 8 7 24 4 35 -3 11 -351 365 -772 788 l-767 767 807 808 c568
568 808 815 812 833 4 23 -80 111 -780 810 -431 431 -791 787 -801 791 -10 3
-22 7 -28 7 -5 1 -375 -365 -822 -811 l-813 -813 -808 807 c-444 443 -816 809
-827 812 -11 3 -27 1 -35 -4z"/>
</g>
</svg>
